<?xml version="1.0" encoding="UTF-8" standalone="no"?>
<!-- Created for Inkscape (http://www.inkscape.org/) -->

<svg
   xmlns:dc="http://purl.org/dc/elements/1.1/"
   xmlns:cc="http://creativecommons.org/ns#"
   xmlns:rdf="http://www.w3.org/1999/02/22-rdf-syntax-ns#"
   xmlns:svg="http://www.w3.org/2000/svg"
   xmlns="http://www.w3.org/2000/svg"
   xmlns:sodipodi="http://sodipodi.sourceforge.net/DTD/sodipodi-0.dtd"
   xmlns:inkscape="http://www.inkscape.org/namespaces/inkscape"
   width="3200"
   height="800"
   id="svg2985"
   version="1.1"
   inkscape:version="0.48.1 r9760">
  <defs
     id="defs2987" />
  <sodipodi:namedview
     id="base"
     pagecolor="#ffffff"
     bordercolor="#666666"
     borderopacity="1.0"
     inkscape:pageopacity="0.0"
     inkscape:pageshadow="2"
     inkscape:zoom="0.35"
     inkscape:cx="1600"
     inkscape:cy="400"
     inkscape:document-units="px"
     inkscape:current-layer="layer1"
     showgrid="false"  />
  <metadata
     id="metadata2990">
    <rdf:RDF>
      <cc:Work
         rdf:about="">
        <dc:format>image/svg+xml</dc:format>
        <dc:type
           rdf:resource="http://purl.org/dc/dcmitype/StillImage" />
        <dc:title />
      </cc:Work>
    </rdf:RDF>
  </metadata>
  <g
     inkscape:label="Layer 1"
     inkscape:groupmode="layer"
     id="layer1"> 
     <g>
<path style="fill:none;stroke:black;stroke-width:2px;stroke-linejoin:round;stroke-linecap:round;" d="M 
1205.2191 493.3092
1215.3212 492.79663
1223.7203 484.63348
1225.7562 494.19678
1222.1509 504.2939
1233.9434 501.12268
1245.656 502.17206
1231.6719 510.8523
1228.429 523.5137
1224.349 536.2826
1222.5342 550.013
1217.4248 559.2772
1220.721 569.81067
1234.5963 561.3304
1250.1 555.37024
1241.8269 540.6913
1247.462 522.86694
1263.9783 514.92474
1261.1589 498.20383
1248.3148 489.53137
1237.218 491.54443
1237.0056 481.07672
1242.5131 469.0909
1253.0237 466.87988
1249.5532 478.46225
1267.6152 479.727
1283.2488 466.8293
1278.7393 496.01474
1293.4323 504.5381
1310.3733 497.01245
1317.6914 515.3332
1332.0166 503.45
1344.774 488.56946
1336.7896 470.28976
1344.0658 447.3934
1345.5641 426.11017
1368.3503 441.44623
1361.6128 467.99597
1365.2795 493.4808
1387.7698 503.32443
1385.6318 481.76678
1405.8995 469.26587
1383.7671 458.1057
1402.4948 444.05072
1378.8215 421.14096
1408.8477 422.76056
1434.3851 439.49387
1426.209 465.0782
1449.1132 465.45966
1471.3116 472.73285
1483.2294 452.8858
1490.7709 429.40387
1512.8237 411.76666
1511.8254 389.29785
1485.4908 383.5345
1482.5665 407.4039
1461.6482 438.01862
1457.1439 407.28915
1458.795 378.11163
1430.6117 378.5194
1433.4879 410.96982
1406.995 396.12445
1391.9395 370.95868
1413.6011 354.17102
1399.696 328.07703
1377.7543 346.30392
1348.7767 358.3486
1348.97 337.99646
1333.3903 322.56985
1317.6995 309.1085
1318.8899 289.6932
1337.2996 287.3234
1347.0994 302.1002
1356.0392 320.57925
1376.7561 314.8238
1393.2603 299.8203
1417.2642 304.4654
1411.4268 289.3621
1432.4929 280.41385
1453.7129 278.05624
1479.9485 276.84036
1469.1268 300.72485
1444.2179 307.71915
1427.9861 329.01358
1445.3323 350.61618
1463.913 329.35
1488.5092 317.96677
1497.3491 339.47943
1475.4529 355.13812
1501.8673 365.02045
1526.305 368.17734
1522.6481 342.14838
1516.7788 315.7478
1498.0938 295.9076
1507.9004 275.36334
1523.0554 258.9168
1544.0757 264.6333
1549.8112 240.09091
1536.7144 213.39182
1536.6195 188.6189
1531.8591 161.84671
1512.1084 139.5461
1496.41 112.86714
1463.6952 108.56221
1435.4213 109.38711
1428.0256 131.32346
1406.745 140.76414
1383.8325 133.30879
1386.2107 155.4568
1380.0864 172.19632
1355.204 157.35466
1360.2473 133.99329
1335.7849 135.46414
1316.1614 144.6521
1327.4827 167.28622
1315.7639 177.83243
1337.3705 176.40466
1348.772 182.33379
1360.2998 181.99313
1360.3257 194.24844
1371.4387 188.95499
1376.3173 197.59003
1384.5449 204.02727
1369.9202 208.32556
1377.5514 215.48589
1387.3652 218.2843
1399.3188 221.96654
1394.8672 209.4324
1417.9587 198.60901
1397.3125 187.41553
1410.9163 170.27231
1430.6119 156.48776
1451.8822 140.58865
1474.5074 130.8888
1486.1914 152.1579
1461.7891 166.0651
1439.134 179.32571
1441.2273 204.30032
1427.564 223.79431
1455.782 225.44342
1480.4685 212.50998
1462.7736 195.22345
1484.4026 182.22342
1508.1516 172.21085
1507.3113 200.92218
1503.0143 226.61064
1523.0934 235.42758
1496.5038 255.98607
1480.1305 238.05972
1466.4149 255.90479
1444.6335 248.21579
1426.8074 257.78555
1415.2571 240.31116
1396.8296 234.54253
1388.555 230.72697
1380.075 227.17918
1371.9037 229.57213
1376.6536 238.53143
1385.1237 242.12988
1395.5913 245.11282
1398.4792 255.19713
1405.1865 264.63547
1406.7433 277.5774
1394.1295 273.58646
1387.7268 264.06018
1384.7231 254.00604
1374.9349 250.80408
1364.815 258.71143
1375.352 263.70496
1371.4698 288.69366
1352.6614 277.53003
1336.7109 269.52454
1321.1759 270.44287
1347.102 260.00262
1354.5115 249.47388
1346.8951 245.85777
1344.2086 235.72784
1335.2928 250.8266
1329.7556 236.30698
1314.7386 229.48814
1303.8251 227.42393
1311.8152 217.7255
1323.1124 221.13219
1339.4583 214.57358
1340.8717 223.46378
1348.0164 226.26697
1354.428 229.27493
1353.6812 237.41411
1358.9554 242.5466
1364.0267 249.70323
1368.9192 243.3377
1365.2893 236.06601
1362.255 228.43773
1368.1294 220.08006
1358.333 218.87248
1350.3184 214.32782
1360.1053 206.52635
1347.2992 203.11095
1329.2091 197.0169
1312.042 192.86716
1298.6221 195.25945
1301.4073 207.54184
1298.3282 219.03293
1292.6014 227.72385
1289.5867 236.51976
1278.9662 240.1881
1271.0057 230.65625
1269.1206 244.90506
1263.5658 238.96313
1259.6692 229.82762
1263.2179 220.88861
1259.7827 211.34067
1266.8878 204.37724
1255.5425 198.69437
1249.9221 208.1804
1251.7695 220.50201
1241.5144 214.39195
1239.839 202.50768
1224.8147 199.12985
1228.2451 210.28217
1232.1102 220.01764
1241.1061 225.5786
1249.1886 231.0556
1253.959 239.1972
1257.2229 249.77469
1248.227 246.51573
1245.6924 257.50998
1231.3989 256.4703
1238.5803 265.22467
1231.7825 271.92392
1242.2128 281.01254
1247.6584 271.4223
1258.8148 271.1936
1255.1737 281.985
1259.7869 292.65775
1248.8967 292.95514
1238.3899 292.41473
1243.5973 303.52756
1243.779 314.59186
1236.7975 321.63046
1230.4565 328.05914
1227.8414 316.63593
1220.5613 309.27484
1233.5972 309.48285
1230.0986 301.33218
1227.9906 292.1914
1230.484 282.27637
1220.0549 275.15182
1222.1644 263.85825
1220.3037 252.22685
1209.8943 258.0114
1208.7491 269.35065
1201.0525 278.0241
1210.4211 282.36588
1219.4138 287.112
1219.1561 298.31372
1210.8112 303.77414
1206.7087 312.39465
1199.7385 302.44794
1208.0864 293.25232
1197.3391 289.24463
1189.4463 297.4885
1189.8367 308.2995
1196.5139 315.841
1207.3585 322.96875
1215.5973 318.23767
1222.7357 324.05527
1216.3159 330.08
1208.6901 334.20782
1202.2244 339.6046
1200.2571 348.7168
1192.1233 343.04474
1194.8601 333.27747
1199.4885 326.3786
1185.5563 333.75476
1188.0336 323.5003
1181.5277 316.55896
1178.094 307.5642
1177.7761 297.55283
1183.2906 287.83777
1188.9496 278.97235
1193.5764 268.78174
1197.609 258.97784
1200.2415 247.85454
1211.3975 244.37584
1221.7161 240.15042
1230.8264 244.2107
1239.3396 249.25035
1241.2759 238.02908
1232.7041 232.3595
1223.8123 229.28766
1220.1062 219.51486
1214.6002 208.84329
1196.6312 192.8056
1174.1415 173.05487
1171.3812 196.08688
1178.619 216.57677
1198.6439 223.77457
1208.6971 219.3616
1212.9719 230.84361
1203.0818 235.30913
1191.6173 236.59299
1186.6923 247.49069
1160.939 232.46823
1152.1053 209.47995
1131.1597 221.98676
1137.6506 243.81326
1149.4606 264.10538
1164.7621 253.99301
1183.8989 258.4942
1179.3842 268.8943
1174.2427 279.0855
1169.7637 290.80463
1166.7988 304.25632
1163.5281 316.18512
1171.883 320.65936
1161.1006 329.38208
1168.2783 337.08743
1176.2622 329.66235
1179.3973 341.61667
1184.9637 349.27063
1181.2384 357.87424
1171.5527 365.15842
1172.6305 355.38742
1170.2485 346.95734
1158.5045 344.43024
1162.0106 356.00546
1154.9824 361.82007
1159.229 370.5645
1155.2367 380.53903
1152.7664 391.38303
1161.7985 390.56223
1165.0399 382.3034
1169.5616 373.96713
1174.7969 382.61456
1173.7748 391.5774
1167.1758 397.51123
1157.5347 400.5716
1165.5486 405.96783
1173.0471 411.7175
1175.4457 402.2151
1183.4236 396.6665
1183.9564 386.37653
1193.1622 390.79346
1200.5503 383.93958
1202.3262 374.22986
1191.1099 377.98737
1180.5974 375.12738
1184.4177 366.7479
1194.4791 367.02863
1204.5208 365.20712
1191.7936 356.6548
1201.126 357.113
1210.3589 346.29004
1218.8242 340.93686
1219.3676 350.81622
1211.0691 357.24008
1220.6781 360.70282
1224.7668 368.64426
1213.7139 368.82996
1211.0768 378.59128
1220.7004 377.59912
1230.7087 376.72495
1239.7966 379.33105
1241.398 371.65182
1234.448 367.93878
1231.9366 360.17053
1228.2856 352.91013
1230.4487 344.27063
1239.6179 352.03217
1240.3234 342.52063
1226.3488 335.64078
1237.8699 333.62042
1248.6359 335.49896
1245.8086 325.8381
1254.304 321.62796
1254.1693 312.3981
1265.345 321.8424
1266.3677 311.12585
1256.3965 303.13904
1267.8341 299.13293
1268.5564 286.36133
1278.6836 276.40598
1267.8965 275.79477
1255.0392 261.44604
1264.8821 255.41888
1267.6763 264.59106
1276.8154 264.3568
1274.4711 252.54059
1282.3657 253.7407
1288.6904 246.22382
1301.893 239.5318
1320.2853 249.04184
1307.9492 258.51123
1294.3369 263.96814
1302.5106 279.1895
1292.4622 298.0271
1293.3484 321.14304
1271.9806 333.74738
1259.16 330.60846
1259.3901 339.61182
1261.1085 348.26727
1260.6954 357.06552
1249.8256 345.78757
1250.7928 354.9597
1242.5338 360.85168
1248.3989 367.08173
1255.729 363.7536
1268.8041 365.93567
1286.0848 376.78778
1290.67 352.2685
1311.0383 337.85925
1330.3674 347.9865
1314.3679 366.0437
1334.6995 376.2151
1359.08 376.70508
1377.2375 396.7302
1346.0986 399.8117
1320.5583 396.65765
1303.5432 387.7577
1287.6484 403.1432
1290.6722 422.3707
1310.291 423.05
1329.6055 415.48993
1320.4214 440.2308
1328.0696 455.98938
1323.7052 484.5003
1296.2777 482.17
1311.2576 467.45697
1298.5438 449.743
1278.3727 439.68817
1265.818 457.1449
1248.3704 457.12256
1253.3083 445.68613
1254.9862 432.6554
1259.025 423.0398
1263.3402 410.3381
1255.4205 399.45862
1252.0326 392.11768
1255.573 384.12238
1265.5398 393.1184
1263.4257 380.2362
1257.1266 372.6264
1249.6729 375.8672
1247.2441 383.40683
1235.3431 386.02148
1227.0741 386.25195
1218.7946 388.37912
1210.212 387.36227
1205.6993 393.7959
1199.9702 399.2225
1213.6589 399.1152
1223.4895 397.73776
1233.0294 395.36395
1242.6777 390.49146
1242.1794 399.8465
1249.9979 406.04648
1251.0167 415.35614
1244.0381 422.92438
1234.8696 428.05457
1245.2028 435.4748
1242.358 447.59863
1234.7205 440.23596
1225.4159 436.08334
1225.0688 448.3145
1233.41 453.02295
1235.3741 461.53473
1223.4973 461.7004
1213.44 462.62668
1232.0083 470.8535
1224.8279 475.3097
1215.9424 472.88998
1211.3588 482.1444
1204.9836 468.6455
1196.4298 472.136
1200.9911 481.36542
1196.1932 491.17517
1189.4996 483.75903
1186.6963 475.67514
1188.5054 465.6389
1194.6653 459.03683
1204.5249 455.59836
1196.76 447.94003
1205.9019 442.19952
1214.9879 452.20715
1216.4331 441.85788
1223.9053 425.23825
1229.7227 416.65887
1239.5789 411.08502
1230.5447 405.47925
1220.1877 409.40222
1210.0452 409.0642
1214.4357 419.7594
1214.647 431.52515
1204.6418 429.09296
1202.3982 418.83862
1192.7988 425.41245
1192.877 413.77112
1200.1385 408.30197
1191.0422 402.4962
1182.8162 408.40536
1184.5916 417.60236
1180.6638 425.52985
1173.5642 419.90344
1163.0946 414.4403
1163.2272 424.4134
1171.0012 430.01657
1162.4694 437.75763
1154.4797 434.80756
1153.1525 426.53394
1153.9113 418.2181
1154.1199 409.51166
1146.5223 402.50897
1128.457 404.16785
1134.3221 387.8607
1141.7578 372.34955
1139.2776 352.80927
1120.998 345.3192
1103.4595 335.1636
1140.557 332.33594
1144.0277 308.47504
1123.6431 320.2438
1105.9297 308.36487
1084.6552 324.48853
1085.0399 297.78052
1106.2614 283.79037
1127.2085 293.26904
1148.905 284.74835
1127.5835 266.73132
1106.637 260.21384
1085.0306 271.28607
1085.9498 247.21709
1111.0109 237.69534
1107.6477 210.84396
1085.8707 221.465
1084.0067 192.74991
1103.0758 182.08453
1125.0881 173.07341
1129.8309 197.61392
1150.5251 178.18356
1139.3939 149.90024
1108.2314 151.25275
1085.0554 155.96024
1088.2555 118.09245
1115.4307 106.41064
1120.7694 130.25574
1145.9026 114.464615
1162.7019 144.79482
1187.2616 136.54752
1190.0676 159.60635
1209.3362 171.9411
1229.2135 181.16295
1251.8701 177.53348
1265.3286 162.2211
1279.3477 144.60446
1280.1527 173.38284
1272.2622 194.37993
1278.5281 204.91434
1272.8248 216.55994
1281.0984 227.11328
1285.5836 215.55963
1289.7083 204.09941
1286.4746 192.10269
1300.6962 183.24136
1298.1898 158.36739
1297.1965 128.14307
1285.5662 105.15572
1252.9371 107.75582
1266.1003 125.95842
1252.4517 145.92096
1233.7871 158.81973
1213.3142 146.02267
1235.0325 130.40585
1224.5261 107.77786
1206.057 122.920555
1192.714 102.136566
1171.0968 114.76492
1128.9537 39.192204
1236.9309 37.376534
1333.8696 40.09637
1318.4305 111.525116
1347.8931 109.77205
1376.9929 109.01404
1405.5828 111.176926
1422.4072 40.480644
1508.5527 41.235733
1528.4867 111.64602
1546.069 137.52692
1564.7915 110.11371
1577.8606 137.63309
1603.6328 111.16884
1599.8813 40.010178
1701.7867 38.73147
1813.382 38.38359
1874.5192 96.53936
1860.9891 131.4214
1885.7219 130.08533
1902.8391 111.268
1928.905 108.94411
1942.6349 128.84164
1944.5844 150.30595
1924.6465 166.48938
1915.1367 138.98056
1893.9285 159.4513
1868.5604 163.15817
1842.3486 159.99008
1830.1555 137.63522
1839.5782 110.67276
1807.2145 118.42052
1780.3103 114.95977
1750.1536 106.8638
1755.9073 137.3259
1748.6857 167.0582
1756.0767 191.2034
1730.4269 192.82214
1745.5195 216.4385
1719.0076 217.4329
1700.0249 202.83728
1706.9066 183.74686
1715.5242 165.474
1729.1753 148.04424
1729.9424 123.54285
1710.1023 108.408966
1701.0719 135.54993
1685.7156 157.94006
1682.4248 181.26111
1673.1042 203.33286
1651.2312 212.83221
1635.3098 189.82327
1657.32 178.5183
1654.1935 153.55634
1670.1132 132.9928
1678.6676 109.40497
1643.6292 107.60736
1635.4674 132.42062
1607.7336 140.41562
1625.3895 163.73866
1603.6835 187.07681
1590.3075 165.67094
1560.6393 166.07202
1569.5736 192.92642
1565.2618 219.15929
1592.6382 214.75694
1618.5939 209.2716
1631.1312 229.51004
1624.1237 256.07623
1606.0964 238.90332
1580.5964 242.14658
1569.198 263.42764
1597.6389 266.77972
1620.687 283.7273
1611.3975 310.5166
1596.7605 293.3178
1576.7428 286.54315
1553.2163 285.35764
1526.697 288.4039
1541.6227 305.88678
1543.6309 327.6432
1548.0696 352.4575
1567.7512 338.1004
1565.4193 310.6867
1586.2417 316.77707
1595.5846 335.70245
1619.2686 333.9672
1632.5459 352.47983
1647.9851 334.84412
1633.4056 313.95886
1657.4388 313.7555
1670.9093 291.05255
1645.1366 292.03015
1642.9753 268.29355
1652.5864 243.44481
1672.4421 230.78764
1693.0703 222.91895
1705.521 242.0855
1683.7687 251.95633
1665.4971 267.51147
1690.0942 274.5884
1711.0165 264.4336
1728.4268 237.3628
1731.6748 257.62256
1750.6198 264.42493
1768.3666 267.12238
1772.8135 285.7696
1766.8853 310.07687
1760.1897 322.6272
1754.3387 312.77576
1749.9244 292.10657
1733.0024 280.55008
1711.211 285.40784
1719.571 303.15912
1695.3151 299.35062
1698.8759 321.49774
1678.6394 314.48352
1672.7222 336.74042
1675.4751 360.92072
1693.982 365.70798
1693.2211 343.17798
1710.0515 353.5699
1728.0763 351.73535
1731.145 342.65796
1715.205 330.9628
1732.2084 313.88452
1748.9233 322.44583
1745.8236 330.39404
1737.0623 333.00616
1740.149 344.2395
1747.4214 339.33734
1756.6057 333.10858
1767.5858 333.86105
1777.9663 335.71204
1788.9587 332.75574
1797.5625 327.86255
1807.2698 324.52707
1812.6228 316.61737
1818.9358 309.2881
1828.7224 305.85132
1834.7542 314.32074
1839.5565 302.81473
1847.5259 294.5758
1858.9021 292.70547
1868.4432 272.5949
1888.1805 275.18683
1909.6947 278.74207
1918.4434 297.51587
1894.9998 298.52917
1880.4485 300.18207
1871.0076 294.70306
1864.0109 303.23926
1859.9005 313.12286
1852.5325 304.17273
1846.5002 312.4984
1842.798 321.7058
1831.8809 325.7968
1824.4371 318.51245
1820.218 327.74072
1812.1558 332.27176
1816.916 339.41888
1827.8252 335.57697
1824.3733 345.49228
1833.7954 345.56067
1830.5372 353.255
1841.5664 353.19672
1845.1912 345.21588
1837.5997 338.74167
1840.2651 330.59515
1854.3663 321.26782
1866.3995 322.0166
1877.2168 322.09564
1872.4585 310.80936
1884.3457 310.0125
1895.8806 311.69495
1906.2284 315.06784
1899.9261 323.57077
1888.4963 319.9353
1885.4199 328.79065
1879.8352 336.66324
1895.3745 331.57315
1903.4432 336.86182
1897.3511 344.2982
1889.3132 337.9667
1888.119 346.14523
1886.535 354.97192
1877.8806 357.3938
1879.4312 347.91327
1872.5874 342.94366
1863.9945 343.32532
1871.1008 332.51477
1861.1497 331.88882
1851.4558 329.9928
1847.3223 337.17102
1855.6495 341.76868
1851.8755 351.23016
1859.9208 355.32684
1869.3539 352.62814
1867.454 362.6281
1858.6108 368.79364
1868.3959 372.3032
1877.6053 374.94226
1874.4012 383.42676
1863.7163 379.96283
1852.3535 385.07465
1850.5847 371.86597
1850.5891 360.82248
1836.4272 360.31955
1842.5679 365.49994
1840.8535 374.34637
1832.488 369.7251
1827.8628 361.84808
1820.9961 356.45245
1822.7462 368.3166
1815.5256 373.8592
1813.841 364.26962
1809.9999 356.44867
1801.0125 353.01013
1815.6898 349.0992
1807.106 345.57516
1803.7783 336.48053
1795.9602 342.6715
1785.9788 344.025
1775.369 346.12714
1764.7788 343.4903
1755.5348 344.0571
1747.9385 350.21307
1737.7795 353.48798
1729.2484 360.91135
1737.17 363.59872
1745.0948 359.91553
1753.0806 358.53375
1759.1747 353.4774
1768.1903 353.09955
1774.2722 360.11542
1764.1235 363.39453
1754.5964 367.06866
1745.2643 369.54697
1747.2637 378.62146
1735.6521 372.98935
1725.1825 368.48834
1717.8767 373.92432
1708.3807 377.8443
1697.588 386.3763
1680.9868 381.40878
1662.7439 379.9994
1655.6614 356.74213
1641.0616 374.5512
1619.0409 375.2508
1626.154 394.5504
1607.5308 401.9677
1621.7688 418.91135
1640.7166 410.23312
1648.6201 393.51898
1667.137 400.838
1681.8467 407.68518
1686.8206 396.73798
1696.5098 402.17844
1705.2737 395.81757
1710.0002 387.4774
1719.4858 384.46445
1727.844 379.37042
1736.7429 383.85434
1747.9734 392.0527
1739.8438 404.77246
1727.74 391.67236
1717.4006 395.0619
1723.542 403.52124
1713.0968 403.81735
1704.3583 406.025
1697.2415 412.93628
1689.0217 418.27344
1695.3171 424.68298
1704.2786 421.60492
1708.6458 414.16553
1717.7777 412.06158
1725.3789 416.28528
1715.9805 421.55255
1711.4498 429.1617
1702.3988 431.7125
1693.5012 435.23706
1685.3059 428.6064
1683.7634 438.86777
1671.3848 432.9338
1673.6394 418.5197
1658.3765 418.93036
1641.1885 429.68933
1660.1022 437.1323
1646.237 450.06195
1639.708 467.08716
1625.95 479.01718
1638.5906 493.3355
1650.7932 509.00037
1666.0701 497.71832
1654.2268 482.85202
1661.5076 462.69324
1664.7427 449.49533
1678.6766 448.29706
1687.1987 455.49664
1675.9968 460.74725
1669.5165 472.6003
1681.4242 473.8463
1686.0288 465.60492
1696.1843 464.5461
1699.1963 453.64374
1690.4974 446.07187
1700.2899 443.28918
1706.3855 463.05347
1716.7539 465.89392
1707.7434 475.32385
1719.7893 476.72504
1724.5137 486.26184
1713.4746 490.26416
1704.1425 497.8458
1702.0527 485.27533
1694.1444 476.28625
1682.9102 485.35797
1692.0494 491.28073
1685.548 500.88647
1696.7118 506.20175
1710.4956 516.14856
1726.3896 505.15622
1740.9852 517.82776
1746.1959 496.98267
1759.3914 482.38275
1752.1741 465.92932
1733.5847 476.2691
1729.5864 466.14258
1721.0427 456.68195
1710.4601 451.5704
1708.9331 440.25763
1717.4408 436.00873
1720.4922 445.5031
1730.2128 451.30746
1738.1477 458.72717
1745.3348 448.09106
1749.8086 435.9773
1735.8228 442.8514
1727.2787 436.6128
1723.8823 427.07507
1738.6191 425.03644
1750.2993 419.0116
1758.6505 409.45822
1768.2925 409.24887
1772.6049 399.17474
1779.3898 390.90817
1785.7925 383.71796
1790.1576 376.02722
1779.2771 377.0539
1772.4741 383.52777
1768.1648 391.85812
1761.4592 399.4406
1759.8965 384.1998
1758.5342 374.88867
1769.2222 372.20605
1780.4814 367.56662
1782.6896 354.9049
1792.3868 354.35016
1790.0118 364.52515
1797.7106 370.9281
1801.766 362.88885
1807.3792 371.48175
1801.3867 379.12973
1796.4585 391.69992
1786.9214 410.6142
1782.1323 424.8189
1766.4453 427.9583
1762.0946 444.50598
1774.955 440.98334
1789.7268 439.42905
1801.6699 431.5567
1802.5188 418.0617
1802.2112 403.66583
1816.1763 394.49493
1825.0618 381.8127
1836.5527 389.9331
1835.4565 404.23694
1853.927 406.1026
1867.8759 395.18735
1880.3887 391.36243
1887.3639 382.5317
1892.4003 391.25317
1901.3075 395.0078
1898.5802 380.03326
1904.3398 386.09128
1918.8137 386.99155
1923.555 378.17157
1930.1204 386.11044
1925.3104 394.5499
1935.439 395.31683
1944.8428 396.7827
1938.0491 406.2995
1937.3289 417.11743
1946.7656 414.70947
1949.1614 405.9685
1952.6268 390.29745
1957.0588 399.21716
1969.6316 399.85214
1964.3145 390.7479
1962.4624 380.62213
1956.7349 371.63208
1975.4324 361.60736
1995.3135 350.19836
1992.6238 372.68588
1979.3384 386.5738
2001.9065 390.48886
1988.7255 404.4852
1971.9265 409.82663
1976.3668 418.43634
1978.564 427.90375
1967.8574 426.76904
1964.8396 418.7805
1960.9448 407.92697
1956.1951 415.7505
1953.1937 424.4393
1948.1726 434.74008
1943.9478 424.03546
1938.119 430.27686
1930.5078 425.1881
1921.1748 420.88257
1919.9575 410.7822
1929.0048 413.6358
1927.8981 403.58923
1917.1238 400.0726
1911.0862 392.1434
1906.456 402.14963
1911.3738 409.118
1910.9602 418.51978
1912.4436 428.02502
1921.6013 430.82642
1928.7297 437.03427
1937.8148 438.9421
1943.8436 445.5688
1953.2839 444.5919
1949.8967 455.07275
1939.9646 454.89484
1932.6942 447.3475
1919.5038 441.0263
1910.2944 438.037
1902.1711 431.23248
1901.034 422.21814
1901.21 412.146
1890.1079 411.85754
1894.9902 402.64777
1884.1807 400.79697
1872.669 412.72717
1874.6953 429.1953
1890.4146 422.5512
1890.9697 434.4395
1899.6779 440.84787
1891.8152 448.2589
1898.8881 457.32257
1904.4526 449.21298
1913.512 448.0985
1919.7836 454.76398
1909.5015 459.5979
1890.2034 462.391
1890.4365 476.51593
1901.9357 468.66132
1903.7482 480.09595
1895.4114 489.83676
1869.9497 480.44995
1878.189 496.4277
1883.832 515.90186
1867.4281 513.99207
1862.7026 534.92676
1882.3835 533.4433
1903.8857 534.2772
1917.6084 529.8457
1920.0847 540.65466
1909.297 548.07007
1924.7258 552.04596
1941.4818 536.25806
1944.592 550.6633
1948.9034 566.9588
1963.7827 555.69763
1964.4604 539.0995
1956.7607 523.53284
1978.0588 524.65076
1985.0593 539.996
1980.3595 559.0875
1974.3652 572.075
1987.8958 575.0965
1979.166 583.57495
1966.4093 584.5581
1949.9177 584.8982
1937.2494 599.13367
1930.5063 581.90735
1930.5756 566.1675
1921.5034 571.5918
1916.3661 559.9051
1903.3911 566.388
1889.9474 572.28345
1891.7993 551.928
1874.4531 549.97424
1873.9445 565.7866
1858.0853 569.27814
1855.887 551.9083
1840.8627 559.9678
1828.1813 547.6202
1842.3905 538.6196
1831.8541 524.87146
1823.5637 507.65643
1832.1892 491.6389
1842.3217 507.02646
1851.5854 521.3707
1857.435 497.18945
1848.2458 481.45932
1857.835 466.13232
1873.8535 462.02972
1875.9177 445.27365
1858.7549 445.917
1856.8835 427.02353
1840.0475 439.9718
1837.4543 422.01706
1819.7031 413.3286
1819.9806 433.63867
1806.2551 448.59143
1815.5936 463.85666
1826.0125 451.89532
1843.2744 458.483
1832.0442 472.346
1815.5555 480.12146
1811.2521 494.77264
1804.9299 509.12704
1791.8212 500.50183
1797.52 482.5433
1799.231 465.50073
1786.6863 454.14093
1770.3787 458.84662
1781.8237 470.14868
1781.4009 485.49524
1771.6135 501.81903
1759.5387 513.42694
1757.7139 531.49426
1771.593 547.09985
1776.889 568.45074
1757.5039 573.4847
1751.4565 555.23895
1740.175 537.6527
1724.6838 526.7883
1710.7827 536.8772
1701.4192 550.0818
1694.4622 526.08167
1689.4341 514.7565
1677.8599 512.8328
1682.5933 526.0995
1684.631 537.0825
1677.76 545.64215
1683.9348 558.98334
1666.5076 564.1355
1655.1504 579.53174
1645.1998 594.4675
1662.6855 600.8401
1673.3816 587.35345
1686.1177 578.0702
1700.4872 568.9253
1717.7788 566.72375
1728.1752 551.55804
1737.4713 575.0907
1751.3103 595.31134
1770.2479 587.6138
1789.4259 587.4977
1813.999 580.4042
1800.4546 572.27106
1792.1586 557.99506
1792.1897 539.7981
1778.1659 523.3401
1798.1174 522.57654
1815.1294 523.299
1813.0657 538.64844
1811.459 555.2796
1824.9817 565.71826
1832.9463 580.23535
1844.7178 575.9987
1845.7462 590.24414
1859.8538 586.9822
1875.6578 582.32947
1889.3477 591.3417
1875.4508 600.20056
1860.1406 601.51
1840.607 603.16223
1827.8926 601.0847
1825.7942 591.4374
1814.646 595.422
1818.2888 605.5537
1826.1243 615.68066
1838.5997 620.1798
1851.6023 615.9272
1856.4108 631.26715
1866.6492 618.0425
1881.0592 617.67365
1890.4937 607.766
1904.5183 601.9443
1901.9172 586.31287
1912.6089 580.38745
1917.7875 593.3638
1921.7136 608.02356
1936.2719 617.2012
1953.737 605.92456
1965.6036 599.57935
1973.3706 593.7573
1978.3096 606.0356
1991.4869 604.9107
1983.4434 596.1098
1991.5122 589.57007
2001.524 584.53534
2003.3398 597.5071
2015.4308 590.44434
2036.7203 578.3407
2050.1128 558.8114
2073.38 561.90155
2064.0706 534.6087
2081.9663 523.4584
2094.5496 507.2723
2089.0864 485.52527
2068.6836 500.17828
2048.429 511.98788
2037.7778 490.71066
2056.376 481.13153
2058.1553 458.62842
2068.1213 435.81427
2051.4531 434.4922
2042.2529 449.00937
2033.0555 428.9126
2013.8652 428.08932
2005.7439 444.2314
2013.1519 461.24167
2024.4868 446.44604
2035.4586 466.54172
2018.05 479.32172
1996.594 474.20007
1984.3682 473.51538
1974.4995 481.0005
1984.7437 486.04245
2002.9353 493.10785
2020.7333 501.56796
2025.7839 522.0242
2041.9167 535.8123
2026.1356 552.09045
2014.3157 569.5029
2001.2928 554.95746
2008.4349 535.43164
2002.7158 516.4272
1986.2861 510.30783
1984.6436 498.5526
1973.4988 494.57736
1974.4592 506.7989
1964.4944 505.32443
1959.6866 495.0357
1947.0917 510.06738
1933.5171 523.4541
1919.6698 512.44385
1909.1117 506.802
1911.9563 520.71686
1900.421 519.2677
1897.5546 504.10193
1906.8367 493.2231
1919.1016 497.7252
1932.4264 505.49213
1940.7725 492.57968
1956.3009 484.16797
1966.0833 486.4295
1962.4746 474.6532
1950.2977 475.50635
1931.9158 480.61337
1917.059 485.72382
1915.0669 474.98618
1917.2249 465.73737
1930.6995 465.5382
1945.3558 465.20407
1955.5347 465.6406
1973.551 470.13556
1966.6726 463.27817
1959.6741 455.8215
1963.5834 448.18344
1960.9343 439.22778
1958.6238 430.87238
1969.9541 435.23788
1971.954 444.01672
1972.6573 454.9366
1981.3234 461.5344
1992.1831 461.44147
1988.1312 450.96237
1980.6377 447.72852
1981.1055 437.27374
1992.2715 437.73984
1993.241 423.28864
2007.4441 410.5616
2027.279 407.99118
2023.5723 386.02582
2012.9471 365.78937
2035.578 361.93085
2049.3096 378.34277
2047.2003 397.1191
2049.076 415.73874
2069.647 414.80273
2090.4263 412.677
2072.1953 392.92163
2082.68 375.73508
2095.793 357.9952
2080.9448 340.35187
2064.5747 361.94028
2053.31 342.98068
2065.7563 320.90738
2070.3806 297.52975
2071.6758 274.19083
2092.3506 262.13757
2084.752 239.22156
2087.0566 217.04166
2062.5513 223.03528
2062.148 251.92052
2042.5342 240.94762
2039.681 216.37419
2036.1888 188.70012
2061.193 195.86902
2067.7905 171.55304
2044.675 162.67189
2019.4995 159.80872
2013.0953 185.01988
2000.4338 204.88353
2018.7355 215.40051
2019.6365 240.9573
1996.5083 250.78314
1996.3204 228.03784
1974.9336 215.45334
1971.2207 237.65709
1976.5195 261.94513
1952.7404 252.3626
1955.6637 274.9246
1960.0347 296.05255
1978.269 285.3622
1997.4958 277.80963
2014.1517 266.71283
2035.4415 265.05817
2049.2903 280.38272
2045.0856 302.71402
2023.26 289.08557
2001.1067 300.09406
1980.7145 309.20184
2021.4686 314.20187
2040.3184 326.80017
2021.8538 342.19385
2002.7937 326.60547
1981.555 330.82294
1965.9492 341.8591
1958.9581 317.83234
1947.6791 334.08142
1935.2288 346.57568
1944.5645 353.35297
1952.7471 361.6391
1945.3765 373.37643
1950.9001 381.36414
1941.1028 385.59344
1935.0796 376.96185
1941.145 365.1872
1934.4036 357.93768
1924.1338 352.59857
1912.791 362.50525
1924.4204 361.25705
1930.2004 369.07855
1918.7573 369.71567
1911.7799 378.49725
1905.4763 370.7772
1902.2543 361.20798
1895.6492 371.10767
1886.4352 373.12695
1878.3479 365.74716
1889.7607 363.6338
1895.6058 354.7063
1904.6777 350.25403
1913.848 352.7733
1912.2195 341.4862
1922.3285 343.42892
1930.5867 336.50894
1920.9884 331.51407
1909.7529 329.48206
1916.1978 321.14474
1936.0776 315.5738
1939.8232 295.77014
1933.469 276.2403
1924.6475 257.96732
1903.6838 255.63132
1905.0295 233.34892
1882.257 248.27545
1856.1562 254.94296
1849.8721 281.12375
1837.4341 289.66864
1829.0237 295.409
1822.4734 286.03375
1817.745 298.58215
1808.0109 292.28876
1805.8545 304.90256
1800.2927 315.3214
1789.5007 319.02338
1780.3411 325.23584
1770.2188 322.76263
1778.5581 313.54346
1779.9958 302.49323
1791.3702 306.639
1794.9092 295.35742
1790.4133 269.40466
1812.4336 266.98013
1837.0931 267.02704
1827.6569 247.29407
1837.9182 227.92296
1825.605 204.68315
1813.0276 224.62433
1799.6975 245.70364
1775.4338 242.5496
1753.3582 239.06671
1771.01 210.63062
1790.1898 220.51352
1799.2649 195.1958
1779.8779 178.20964
1779.074 149.46541
1805.26 155.34184
1818.8873 176.83624
1842.1904 186.9906
1863.7627 190.37303
1855.0599 211.91148
1860.9829 235.42029
1880.1309 220.01065
1901.4037 208.99077
1884.6409 190.16428
1907.5085 182.81363
1923.614 201.98376
1926.3811 222.80634
1935.302 240.81488
1950.7109 218.72606
1940.0931 190.92514
1953.5582 171.33649
1963.7881 191.77258
1984.1395 191.50693
1993.353 169.06284
1973.9254 158.43883
1971.579 134.06555
1959.3516 109.05058
1957.3029 36.94493
1986.9054 111.31598
2001.3306 139.46411
2013.208 111.82452
2041.6267 108.53936
2034.6912 134.60649
2063.309 140.59921
2089.879 132.82458
2072.1123 110.95846
2072.6218 39.689377
2109.0586 112.04104
2113.5166 146.63336
2090.1858 161.36534
2112.7488 179.95885
2089.067 191.17168
2112.5176 211.91797
2112.0498 240.96246
2114.4678 272.81952
2093.6853 289.54218
2114.2625 304.1553
2092.315 318.1599
2112.7083 336.16788
2115.1143 368.97003
2105.6365 390.5119
2114.8774 412.9903
2115.8237 443.53516
2099.5798 434.17334
2082.42 443.27362
2075.5396 466.67755
2095.809 461.37592
2113.7922 469.97345
2114.1401 496.2644
2111.9854 525.0728
2091.1626 548.15063
2113.8413 551.4672
2111.6624 576.1998
2110.855 602.2773
2106.0596 626.1367
2112.6326 650.0896
2112.6084 680.98145
2086.0923 650.74884
2062.6445 643.0233
2046.9719 664.8766
2025.5786 684.7143
2048.475 691.58386
2068.5552 679.2674
2089.9524 684.8627
2099.0815 746.3688
2026.1941 764.5212
1910.6042 764.09076
1906.9935 692.90173
1930.1284 691.1718
1955.4601 695.4917
1981.2185 689.31146
2004.1094 694.18933
2000.7784 672.90784
2020.6091 660.977
2003.4902 646.4565
2017.2538 629.368
2034.3531 642.03613
2047.7666 623.87134
2077.0496 615.99805
2088.8337 585.31476
2064.7515 587.09
2047.2653 599.87256
2026.689 610.287
2003.7324 612.7647
1995.0663 629.00635
1981.7515 618.2385
1968.2432 612.3667
1969.2184 625.23865
1980.0635 639.6224
1959.5914 636.15186
1953.6042 620.56146
1942.0806 631.78845
1945.4464 651.0847
1963.5374 655.8585
1983.9644 661.5888
1966.023 675.2421
1945.2288 673.3259
1925.1462 671.0325
1927.7115 652.79895
1908.3402 652.05493
1912.5717 630.75037
1927.1179 632.8982
1923.0214 621.01373
1910.719 616.5596
1899.1316 621.6061
1899.1707 634.4207
1887.7769 629.4143
1876.0654 632.9064
1887.1091 648.16516
1890.6545 666.4003
1907.5013 673.80334
1888.3236 686.3911
1872.9736 697.8171
1869.6272 678.062
1854.3793 667.7727
1872.4606 661.10004
1865.4263 645.9154
1848.5349 650.3795
1841.1128 636.18994
1827.0027 631.2108
1828.0356 648.07874
1835.7225 663.7357
1818.0686 662.7726
1800.2777 660.03125
1790.2488 645.1615
1808.7827 647.32745
1812.6724 634.97516
1814.9761 622.72644
1813.2122 613.5308
1805.3967 606.03973
1803.5002 592.90857
1794.5988 601.0042
1783.1748 602.5515
1769.9512 605.7912
1757.362 613.27545
1744.5427 616.911
1731.4524 602.62524
1721.086 590.1166
1705.7437 588.5865
1694.2788 598.8616
1705.7357 615.9831
1723.6782 623.86035
1739.8583 636.32965
1758.8994 633.50433
1768.69 618.859
1779.78 615.479
1785.5273 624.7784
1793.0167 613.87573
1803.449 619.2261
1797.6721 630.54895
1774.1772 642.8708
1782.1593 664.7999
1765.2333 673.4058
1756.6262 653.7565
1731.8066 653.4539
1714.517 668.5539
1700.4791 688.8241
1727.3197 692.16547
1741.1118 674.00134
1755.7924 692.3373
1780.9977 690.16846
1799.6055 677.521
1804.6653 694.1062
1820.4933 682.32745
1839.2548 680.9706
1853.5688 690.85693
1831.9824 700.6452
1788.407 764.1754
1677.4808 762.1782
1580.593 758.9279
1585.0496 685.5925
1555.3945 680.3816
1580.6069 658.7279
1569.6017 635.45123
1548.1761 634.6635
1533.2092 658.35645
1523.6007 688.85266
1503.3933 666.8884
1499.2495 639.06433
1466.3021 631.38513
1473.5491 658.57025
1443.1776 654.35596
1416.1997 662.9233
1428.3846 687.08716
1454.4373 684.1496
1484.7731 688.1423
1495.1267 759.8943
1413.2579 759.7299
1334.3428 760.8349
1350.2429 692.0534
1373.8087 688.54285
1327.9226 689.34564
1315.5391 675.0394
1300.408 692.0481
1294.1191 671.46765
1275.948 666.1837
1265.7681 646.4273
1288.5223 647.84564
1308.1908 656.05994
1311.0339 639.6295
1298.7168 627.18097
1282.5588 629.7786
1265.7437 628.9807
1262.4048 613.91785
1269.123 601.7964
1279.2863 612.6726
1292.8644 612.6974
1287.497 602.41266
1279.2783 590.98425
1289.1112 582.1985
1291.318 592.37805
1304.3473 590.0657
1301.5708 577.8719
1315.7124 571.0635
1316.4597 554.52136
1301.456 563.1757
1288.6439 568.53296
1276.5984 575.33264
1265.2993 584.4557
1253.3285 596.0826
1247.0187 611.4125
1233.4446 616.62317
1231.9575 604.40186
1239.5278 595.72217
1228.2966 591.37366
1219.0549 597.02905
1208.8328 601.55884
1220.9248 609.5447
1210.977 617.54224
1221.6609 632.4053
1247.5001 631.11725
1239.4108 645.963
1219.1434 652.2313
1200.9147 642.58655
1202.202 664.6583
1183.6337 671.6293
1181.2352 691.00195
1203.1205 688.81635
1226.4799 691.7772
1221.4059 672.87756
1238.9705 666.45935
1257.3043 664.8008
1250.2794 688.265
1274.3724 689.2326
1260.5391 759.42944
1186.4941 760.11615
1112.0795 760.6984
1112.1122 693.3259
1086.5697 692.9536
1082.421 676.21094
1086.6907 660.96686
1102.1705 676.2502
1125.1052 677.98315
1139.2505 692.0593
1160.6976 688.921
1145.5732 669.7569
1129.4945 657.8688
1111.2234 661.1591
1100.7255 647.4839
1118.3314 641.8554
1145.2916 648.04474
1163.3073 647.1975
1164.3451 666.9332
1182.0818 652.08844
1181.8286 632.9205
1197.548 625.2147
1199.4086 609.9471
1189.529 603.37994
1181.2487 598.20154
1187.7498 592.08777
1184.9026 581.2262
1181.2955 572.8462
1171.745 570.9376
1173.0308 579.6073
1177.5151 587.79193
1172.4307 595.65717
1164.3582 597.8261
1156.3387 602.6511
1152.827 614.9758
1165.5488 607.91876
1176.1335 605.79126
1185.5059 614.56964
1171.9548 618.2102
1163.7393 630.0327
1147.5515 629.0548
1131.6603 633.4925
1135.6603 616.3491
1119.8738 617.72766
1104.3113 613.1858
1107.9424 628.45447
1092.7682 633.5159
1081.5626 645.10596
1080.1956 625.9494
1092.998 618.0011
1080.9478 609.7167
1092.571 600.79865
1100.6857 596.832
1101.5989 586.9486
1093.9585 580.83826
1090.327 590.9094
1081.2806 592.9104
1082.9607 580.8812
1081.445 560.70776
1097.4426 563.5388
1105.976 576.8534
1112.0118 585.1106
1111.0573 593.8661
1108.1656 602.9297
1118.1561 601.1978
1128.033 602.22253
1140.3964 602.8696
1148.3416 598.2761
1156.1359 591.7908
1165.9905 587.6402
1162.1543 579.3366
1152.5216 574.2018
1152.2417 583.9846
1142.6598 589.62744
1133.4855 593.86914
1122.3951 590.4834
1131.7216 583.07153
1142.9458 579.4606
1138.642 571.5983
1150.1053 565.36597
1148.2185 554.59985
1140.1897 561.234
1129.5846 564.3854
1127.2295 573.98486
1118.5782 578.8542
1117.1952 567.3512
1125.8512 548.5829
1138.2534 535.8882
1137.768 516.89325
1151.8564 501.98334
1158.0759 489.58762
1165.5201 498.69702
1169.9513 490.35654
1166.4955 481.0912
1157.5161 477.38217
1140.791 479.28424
1132.354 495.581
1119.6229 510.54034
1106.2661 495.71664
1101.7894 521.3766
1119.3612 530.4532
1107.1278 546.5902
1087.5732 543.24695
1082.9845 526.1109
1085.1592 505.58484
1086.9772 484.93878
1084.0112 465.35944
1081.7256 442.99655
1098.9379 449.44476
1105.3741 467.07138
1119.882 478.6454
1138.7062 461.35165
1123.2152 456.48248
1120.5284 440.71945
1107.6755 433.40463
1093.1244 428.5129
1081.7004 417.75717
1085.1383 397.65146
1099.3208 383.45346
1083.1993 374.55872
1084.5748 350.76804
1103.6847 361.71603
1124.4205 366.03656
1117.685 381.91086
1110.9934 398.16144
1102.1666 412.3934
1120.4052 420.6887
1137.6345 419.61694
1137.0332 438.5515
1153.071 445.89484
1156.0242 456.8954
1157.576 466.9702
1168.8524 470.07043
1168.0917 459.24728
1163.8654 448.6815
1174.6001 450.11804
1171.5309 439.47052
1179.9966 441.6015
1183.8468 432.86972
1196.7174 435.3419
1189.4192 441.1233
1185.971 451.31946
1179.7068 459.67624
1178.8438 469.50693
1176.5712 479.48166
1179.7363 488.26865
1187.0433 494.4818
1178.0299 498.3584
1164.0679 507.54437
1158.4341 515.0187
1156.33 526.1039
1166.5474 522.9633
1172.0978 515.14343
1175.6031 507.00775
1185.8232 506.52255
1193.7805 501.38525
1201.7568 504.93933
1211.5183 503.4718
1217.4996 513.9927
1205.9055 514.41125
1210.7424 523.8754
1209.9434 534.218
1211.944 544.44366
1206.6477 554.0628
1199.877 543.36176
1199.5802 532.2272
1198.2561 522.7052
1193.9126 513.7292
1183.8685 516.6148
1177.6504 523.95325
1187.9504 527.1677
1191.1538 537.6999
1182.2107 537.6178
1175.2322 532.42175
1166.5659 533.5651
1157.9799 536.4132
1153.8746 544.76904
1158.4363 552.5093
1160.0509 560.9193
1162.1392 569.5824
1171.0359 562.05646
1168.8096 553.3099
1164.9875 544.2263
1174.6685 543.72577
1178.7936 553.6781
1186.6326 547.56165
1195.8645 552.6666
1188.4714 559.3559
1180.6996 563.77985
1198.1255 563.47736
1207.8135 565.81573
1209.5857 576.3555
1199.3135 576.052
1190.7416 571.1655
1193.7687 584.96857
1198.3167 597.02136
1203.0686 587.47314
1212.0137 588.4973
1220.2411 581.3717
1231.8232 579.73773
1248.1174 575.9724
1263.6184 566.68164
1266.0951 550.27905
1263.7552 534.95166
1281.4678 555.2798
1298.9979 547.53687
1285.3265 537.3817
1279.9598 520.38495
1299.5845 521.99536
1312.4381 534.4877
1328.3956 543.64954
1334.2717 526.4389
1351.1901 515.9308
1370.2424 514.9935
1363.9733 537.4938
1349.2407 549.5841
1339.2789 567.59564
1330.9846 586.22034
1317.4773 590.3345
1311.033 599.00085
1298.696 598.5215
1302.1926 607.0896
1310.3629 611.06384
1314.2181 621.3157
1327.8989 627.9889
1332.9121 641.11707
1329.568 661.1706
1350.9895 672.6382
1348.143 652.4177
1377.1892 632.6778
1369.19 655.7219
1387.1853 668.3773
1401.1964 688.4005
1395.364 645.11414
1416.7324 634.5035
1440.938 626.7
1428.1667 605.0369
1405.54 610.8542
1386.1844 612.31366
1363.0895 611.9877
1355.4146 634.0701
1344.9559 616.6406
1328.8264 613.7758
1319.6296 604.5258
1327.1616 598.19806
1339.258 598.141
1351.8604 589.24097
1371.4304 593.04504
1364.6473 568.6968
1383.382 556.97473
1408.8065 564.7002
1389.1255 583.6538
1411.2256 587.5851
1433.739 578.3518
1442.0983 554.03455
1464.7406 544.08124
1463.3058 517.8805
1442.5681 524.92395
1422.2969 519.103
1423.1863 544.1475
1402.7344 540.6976
1384.3458 529.97485
1402.5516 517.09503
1410.7937 493.9593
1434.1727 493.96313
1455.8918 494.5722
1480.7517 497.1004
1486.2689 522.74426
1490.4323 544.66675
1511.8411 556.75525
1503.786 584.8911
1483.8607 568.828
1459.0396 573.2352
1452.716 602.2417
1475.6244 595.51495
1487.8811 614.9939
1512.9263 606.446
1524.5216 628.28406
1539.6412 600.0731
1562.8099 608.8567
1587.6818 604.81323
1606.0244 591.11194
1591.6001 571.5056
1571.3376 584.8042
1553.8589 567.1691
1530.4246 574.25433
1536.3762 542.35315
1513.4587 528.3064
1528.7363 508.02097
1548.6083 517.916
1561.0503 536.55133
1576.4927 554.64185
1584.6027 529.8513
1570.8947 509.65027
1569.4573 485.97345
1591.2715 496.1832
1588.069 475.8266
1574.5354 461.25128
1553.4855 465.25153
1547.3513 490.07147
1521.7009 484.84784
1504.3252 503.25507
1498.2719 476.28912
1508.3557 452.3868
1530.0049 463.84814
1541.6388 442.03976
1521.2704 432.43793
1545.2821 417.54828
1536.4696 395.96515
1548.3782 376.20004
1570.7863 370.72302
1585.1702 355.91943
1608.2717 356.97467
1595.9954 379.26865
1586.1427 398.0298
1564.1238 394.02133
1571.7467 418.15564
1564.4392 439.7082
1587.4592 442.58856
1594.5393 421.77692
1610.0226 437.31793
1628.6342 443.74268
1618.971 459.53943
1600.021 459.22137
1607.2004 480.37277
1616.512 499.0329
1599.3552 512.3396
1628.9773 514.21735
1643.6436 529.32605
1663.3488 526.12036
1654.7659 545.27136
1646.0444 562.9208
1629.1084 553.525
1625.7087 535.0427
1609.1743 527.31854
1602.4321 548.0266
1613.2137 567.8229
1630.8043 578.51764
1625.6653 600.4202
1641.3328 613.9906
1628.5515 631.6224
1611.3972 616.97284
1591.3907 628.7678
1608.5519 649.01807
1620.6902 669.76587
1612.1265 690.14276
1642.6099 688.8711
1640.0297 653.7195
1658.9048 670.0231
1673.2322 689.15765
1688.6987 666.16925
1669.4176 649.36487
1653.3988 633.8172
1662.762 618.163
1681.5367 608.1807
1681.5962 626.1096
1691.3384 640.9458
1710.5126 642.706
" />
</g></g></svg>
